<svg width="24" height="25" viewBox="0 0 24 25" fill="none" xmlns="http://www.w3.org/2000/svg">
<g opacity="0.9">
<circle cx="11.8225" cy="12.2836" r="11.8225" fill="white"/>
<path d="M6.69189 15.6299V17.8602H8.92224L15.5003 11.2822L13.2699 9.05181L6.69189 15.6299ZM17.2251 9.55736C17.2802 9.50234 17.324 9.43698 17.3538 9.36503C17.3837 9.29308 17.399 9.21595 17.399 9.13805C17.399 9.06016 17.3837 8.98303 17.3538 8.91108C17.324 8.83913 17.2802 8.77377 17.2251 8.71875L15.8334 7.32701C15.7783 7.27187 15.713 7.22813 15.641 7.19828C15.5691 7.16844 15.4919 7.15308 15.414 7.15308C15.3362 7.15308 15.259 7.16844 15.1871 7.19828C15.1151 7.22813 15.0498 7.27187 14.9947 7.32701L13.9063 8.41542L16.1367 10.6458L17.2251 9.55736Z" fill="black"/>
</g>
</svg>
