<svg width="34" height="33" viewBox="0 0 34 33" fill="none" xmlns="http://www.w3.org/2000/svg">
<g clip-path="url(#clip0_1_10225)">
<path d="M33.3493 16.2838C33.3493 20.6025 31.6337 24.7443 28.5799 27.7981C25.5261 30.8519 21.3842 32.5675 17.0655 32.5675C12.7468 32.5675 8.60494 30.8519 5.55114 27.7981C2.49734 24.7443 0.781738 20.6025 0.781738 16.2838C0.781738 11.965 2.49734 7.8232 5.55114 4.7694C8.60494 1.71561 12.7468 0 17.0655 0C21.3842 0 25.5261 1.71561 28.5799 4.7694C31.6337 7.8232 33.3493 11.965 33.3493 16.2838ZM14.6026 10.3666C14.4504 10.2583 14.2713 10.1939 14.085 10.1806C13.8987 10.1672 13.7123 10.2054 13.5462 10.291C13.3801 10.3765 13.2408 10.5062 13.1435 10.6656C13.0462 10.8251 12.9947 11.0083 12.9946 11.1951V21.3724C12.9947 21.5592 13.0462 21.7424 13.1435 21.9019C13.2408 22.0614 13.3801 22.191 13.5462 22.2765C13.7123 22.3621 13.8987 22.4003 14.085 22.3869C14.2713 22.3736 14.4504 22.3092 14.6026 22.2009L21.7267 17.1122C21.8587 17.0181 21.9662 16.8938 22.0404 16.7497C22.1146 16.6056 22.1533 16.4458 22.1533 16.2838C22.1533 16.1217 22.1146 15.962 22.0404 15.8179C21.9662 15.6738 21.8587 15.5495 21.7267 15.4553L14.6026 10.3666Z" fill="white"/>
</g>
<defs>
<clipPath id="clip0_1_10225">
<rect width="32.5675" height="32.5675" fill="white" transform="translate(0.781738)"/>
</clipPath>
</defs>
</svg>
