<svg width="25" height="25" viewBox="0 0 25 25" fill="none" xmlns="http://www.w3.org/2000/svg">
<circle opacity="0.9" cx="12.3083" cy="12.2836" r="11.8225" fill="white"/>
<path d="M13.6193 18.3063H11.4434C11.307 18.3063 11.1748 18.2594 11.0686 18.1733C10.9624 18.0872 10.8885 17.9671 10.8594 17.8329L10.6161 16.6982C10.2915 16.5549 9.98377 16.3757 9.69849 16.164L8.60039 16.5163C8.47041 16.5581 8.33016 16.5538 8.20294 16.5041C8.07572 16.4545 7.96917 16.3625 7.901 16.2435L6.81066 14.3457C6.7432 14.2265 6.71788 14.0878 6.73884 13.9523C6.75979 13.8167 6.82579 13.6923 6.92603 13.5995L7.77785 12.8165C7.73912 12.4618 7.73912 12.104 7.77785 11.7493L6.92603 10.9681C6.82565 10.8752 6.75956 10.7508 6.7386 10.6151C6.71764 10.4794 6.74305 10.3405 6.81066 10.2213L7.8986 8.32233C7.96678 8.20327 8.07333 8.11129 8.20055 8.06166C8.32777 8.01203 8.46802 8.00774 8.598 8.0495L9.6961 8.40183C9.84196 8.29342 9.99379 8.19224 10.1504 8.1007C10.3016 8.01517 10.4571 7.93748 10.6161 7.86822L10.86 6.73473C10.889 6.60054 10.9627 6.48038 11.0688 6.39418C11.1749 6.30797 11.3071 6.26089 11.4434 6.26074H13.6193C13.7556 6.26089 13.8877 6.30797 13.9939 6.39418C14.1 6.48038 14.1737 6.60054 14.2027 6.73473L14.449 7.86882C14.7731 8.01292 15.0808 8.19205 15.3665 8.40304L16.4652 8.05071C16.5951 8.0091 16.7353 8.01347 16.8624 8.06309C16.9894 8.11271 17.0959 8.20461 17.164 8.32354L18.252 10.2225C18.3907 10.4676 18.3428 10.7778 18.1366 10.9687L17.2848 11.7517C17.3235 12.1064 17.3235 12.4643 17.2848 12.8189L18.1366 13.6019C18.3428 13.7934 18.3907 14.103 18.252 14.3481L17.164 16.2471C17.0959 16.3661 16.9893 16.4581 16.8621 16.5078C16.7349 16.5574 16.5946 16.5617 16.4647 16.5199L15.3665 16.1676C15.0815 16.3792 14.7739 16.5582 14.4496 16.7012L14.2027 17.8329C14.1735 17.967 14.0998 18.087 13.9937 18.1731C13.8876 18.2592 13.7555 18.3061 13.6193 18.3063ZM12.5289 9.8744C11.8948 9.8744 11.2866 10.1282 10.8382 10.58C10.3898 11.0318 10.1379 11.6446 10.1379 12.2835C10.1379 12.9224 10.3898 13.5352 10.8382 13.987C11.2866 14.4388 11.8948 14.6926 12.5289 14.6926C13.1631 14.6926 13.7713 14.4388 14.2197 13.987C14.6681 13.5352 14.92 12.9224 14.92 12.2835C14.92 11.6446 14.6681 11.0318 14.2197 10.58C13.7713 10.1282 13.1631 9.8744 12.5289 9.8744Z" fill="black"/>
</svg>
