<svg width="52" height="52" viewBox="0 0 52 52" fill="none" xmlns="http://www.w3.org/2000/svg">
<path d="M18.1422 18.207C17.0658 17.432 16.2801 16.8616 15.4943 16.3018C12.3297 14.0306 9.14363 11.7702 6.00057 9.46676C5.2471 8.9178 4.53668 8.23967 4.00925 7.4862C3.70786 7.03412 3.61099 6.22683 3.8155 5.75321C3.9339 5.47335 4.90265 5.32266 5.3655 5.48412C6.49571 5.86085 7.59363 6.37752 8.62696 6.96953C11.8454 8.83169 15.0315 10.7584 18.3575 12.739C18.6589 10.7584 18.9172 8.78863 19.2832 6.84037C19.5631 5.33342 19.9506 3.82648 20.3704 2.35183C20.6395 1.39384 21.2099 0.565021 22.3617 0.726479C23.5565 0.887937 23.944 1.83516 23.9224 2.90078C23.8794 6.07613 23.7718 9.24072 23.7072 12.4161C23.6856 13.1695 23.7072 13.923 23.7072 14.6765C23.8256 14.7841 24.8374 13.88 25.311 13.4171C29.3582 9.45599 33.4054 5.51641 37.4957 1.59835C38.0662 1.0494 38.7874 0.586548 39.5193 0.285159C39.9068 0.123701 40.6388 0.242104 40.8971 0.521965C41.1554 0.801826 41.2092 1.53377 41.0263 1.91051C40.6818 2.63169 40.1652 3.28828 39.6162 3.8803C36.0103 7.84141 32.3829 11.781 28.7662 15.7313C28.3679 16.1619 27.9697 16.614 27.3777 17.2706C30.0902 17.0768 32.5336 16.8616 34.977 16.7324C39.8961 16.4848 44.8259 16.2803 49.745 16.065C50.0464 16.0543 50.3693 16.0543 50.6277 16.1081C52.3176 16.4633 52.1669 18.1532 50.8967 18.3685C49.3467 18.6376 47.786 18.9713 46.2145 19.1327C40.5849 19.6925 34.9554 20.1876 29.3259 20.715C29.2075 20.7258 29.0999 20.7688 28.7447 20.8657C30.2947 22.082 31.7263 23.2015 33.1579 24.3102C35.8596 26.4199 38.5936 28.4973 41.2523 30.6501C41.9627 31.2313 42.587 31.9956 43.0391 32.7921C43.5235 33.6317 43.0176 34.3529 42.0919 34.1268C40.9617 33.8362 39.7992 33.3734 38.8412 32.7168C34.1697 29.5306 29.5627 26.2477 24.9342 22.997C24.4176 22.631 23.9009 22.265 23.1474 21.7161C22.986 24.1595 22.8568 26.3553 22.6846 28.5511C22.1679 35.0848 21.6513 41.6185 21.1131 48.1522C21.0485 48.8734 20.9086 49.6053 20.6933 50.2942C20.4027 51.2414 19.7568 51.8657 18.7127 51.7904C17.7332 51.715 17.1627 51.0584 16.9905 50.1327C16.829 49.2501 16.7429 48.3459 16.7537 47.4525C16.8183 41.6185 16.9152 35.7952 17.0013 29.9612C17.012 29.5306 17.0013 29.1109 17.0013 28.3681C16.5061 28.8418 16.1617 29.1539 15.828 29.4876C12.1037 33.2119 8.37939 36.947 4.64432 40.6713C4.22453 41.0911 3.75092 41.5109 3.21272 41.7477C2.84675 41.9091 2.20092 41.8984 1.92106 41.6723C1.6412 41.4463 1.57661 40.8112 1.57661 40.4345C1.58738 39.2504 2.22245 38.723 2.78217 38.0449C6.07592 34.0515 9.42349 30.0904 12.7926 26.1508C14.0089 24.73 15.3329 23.406 16.8936 21.7484C13.9766 22.082 11.4471 22.405 8.91758 22.6418C6.48495 22.8678 4.05231 23.0077 1.6089 23.18C1.35057 23.2015 1.08147 23.1584 0.844668 23.1261C-0.393179 22.9754 0.306474 21.6622 0.661682 21.5761C3.10509 20.9734 5.57002 20.3921 8.04571 19.94C10.9843 19.4341 17.4749 18.4331 18.1422 18.207Z" fill="white"/>
</svg>
